# xmcd
# Track frame offsets:
# 150
# 15880
# 28873
# 43923
# 64043
# 76744
# 88260
# 103120
# 121542
# 134114
#
# Disc length: 1966 seconds
# Revision: 0
# Processed by: cddbd v1.4PL0 Copyright (c) Steve Scherf et al.
# Submitted via: VisiTrax 2.9.5.181 - For more info visit www.synapsa.com
#
DISCID=7c07ac0a
DTITLE=Rosanne Cash - Seven Year Ache
DYEAR=1900
DGENRE=
TTITLE0=Rainin'
TTITLE1=Seven Year Ache
TTITLE2=Blue Moon With Heartache
TTITLE3=What Kinda Girl?
TTITLE4=You Don't Have Very Far To Go
TTITLE5=My Baby Thinks He's A Train
TTITLE6=Only Human
TTITLE7=Where Will The Words Come From?
TTITLE8=Hometoen Blues
TTITLE9=I Can't Resist
EXTD=
EXTT0=
EXTT1=
EXTT2=
EXTT3=
EXTT4=
EXTT5=
EXTT6=
EXTT7=
EXTT8=
EXTT9=
PLAYORDER=
